<svg xmlns="http://www.w3.org/2000/svg" xmlns:xlink="http://www.w3.org/1999/xlink" viewBox="0 0 358.22 53.5"><defs><style>.cls-1{fill:url(#linear-gradient);}.cls-2{fill:url(#linear-gradient-2);}.cls-3{fill:#161616;}</style><linearGradient id="linear-gradient" x1="-3.12" y1="6.06" x2="46.87" y2="55.44" gradientUnits="userSpaceOnUse"><stop offset="0" stop-color="#db5e2a"/><stop offset="0.13" stop-color="#dc612e"/><stop offset="0.27" stop-color="#de6b3c"/><stop offset="0.41" stop-color="#e17b51"/><stop offset="0.56" stop-color="#e59270"/><stop offset="0.71" stop-color="#ebb097"/><stop offset="0.86" stop-color="#f2d3c6"/><stop offset="1" stop-color="#fafafa"/></linearGradient><linearGradient id="linear-gradient-2" x1="6.08" y1="-2.48" x2="56.06" y2="46.89" xlink:href="#linear-gradient"/></defs><g id="Layer_2" data-name="Layer 2"><g id="Layer_1-2" data-name="Layer 1"><polygon class="cls-1" points="53.5 26.72 53.5 44.41 44.4 53.5 9.1 53.5 0 44.41 0 35.88 9.1 35.88 9.1 44.4 44.4 44.4 44.4 26.72 26.72 26.72 17.62 17.63 44.4 17.63 53.5 26.72"/><polygon class="cls-2" points="53.5 9.1 53.5 17.63 44.4 17.63 44.4 9.1 9.1 9.1 9.1 26.72 26.67 26.72 26.78 26.78 35.87 35.88 9.1 35.88 0 26.78 0 9.1 9.1 0 44.4 0 53.5 9.1"/><path class="cls-3" d="M101.52,15.43v11l-8.24,8.23H74.06v11h-11V7.2h30.2Zm-11,5.5-2.75-2.75H74.06v5.49H87.79Z"/><path class="cls-3" d="M118,34.65h22v11H107V7.2H140v11H118v2.75h22v11H118Z"/><path class="cls-3" d="M175.65,7.2l8.23,8.23-8.23,8.24-5.49-5.49h-11l-2.74,2.75v11l2.74,2.74h11l5.49-5.49,8.23,8.24-8.23,8.24h-22l-8.23-8.24v-22l8.23-8.23Z"/><path class="cls-3" d="M212.71,18.18V45.64h-11V18.18H188V7.2h38.44v11Z"/><path class="cls-3" d="M270.37,15.43v11l-8.24,8.23,11,11H256.64l-11-11h-2.75v11h-11V7.2h30.2Zm-11,5.5-2.74-2.75H242.91v5.49h13.73Z"/><path class="cls-3" d="M275.86,37.4v-22l8.23-8.23h22l8.23,8.23v22l-8.23,8.24h-22Zm11-16.47v11l2.74,2.74h11l2.74-2.74v-11l-2.74-2.75h-11Z"/><path class="cls-3" d="M330.77,26.42V45.64h-11V7.2H328l19.22,19.22V7.2h11V45.64H350Z"/></g></g></svg>