<svg xmlns="http://www.w3.org/2000/svg" viewBox="0 0 68.56 68.56"><defs><style>.cls-1{fill:#db5e2a;}</style></defs><g id="Layer_2" data-name="Layer 2"><g id="Layer_1-2" data-name="Layer 1"><line class="cls-1" x1="11.66" y1="68.56" y2="56.91"/><line class="cls-1" x1="68.56" y1="56.91" x2="56.91" y2="68.56"/><line class="cls-1" x1="11.66" y2="11.66"/><line class="cls-1" x1="68.56" y1="11.66" x2="56.91"/><polygon class="cls-1" points="68.56 34.24 68.56 56.91 56.91 68.56 11.65 68.56 0 56.91 0 45.98 11.65 45.98 11.65 56.91 56.9 56.91 56.9 34.24 34.24 34.24 22.59 22.59 56.9 22.59 68.56 34.24"/><polygon class="cls-1" points="68.56 11.65 68.56 22.59 56.9 22.59 56.9 11.66 11.65 11.66 11.65 34.24 34.17 34.24 34.32 34.32 45.97 45.98 11.65 45.98 0 34.32 0 11.65 11.65 0 56.91 0 68.56 11.65"/></g></g></svg>